<svg width="200" height="200" viewBox="0 0 200 200" fill="none" xmlns="http://www.w3.org/2000/svg">
<g clip-path="url(#clip0_93_2)">
<path fill-rule="evenodd" clip-rule="evenodd" d="M28.6088 87.0575C34.4756 83.8331 34.4853 73.3942 28.6304 63.7413C22.7757 54.0886 13.2734 48.8774 7.40649 52.1017C1.53967 55.3261 1.52995 65.7651 7.38471 75.4179C13.2395 85.0708 22.7419 90.282 28.6088 87.0575ZM28.6438 107.727C34.4986 117.38 34.4889 127.818 28.622 131.042C22.7551 134.267 13.2529 129.056 7.398 119.403C1.54324 109.75 1.55296 99.3114 7.4199 96.087C13.2867 92.8626 22.7889 98.0738 28.6438 107.727ZM68.6245 129.73C74.4794 139.383 74.4697 149.82 68.6029 153.046C62.736 156.27 53.2336 151.058 47.3788 141.406C41.524 131.753 41.5338 121.314 47.4007 118.09C53.2675 114.865 62.7697 120.077 68.6245 129.73ZM68.6115 85.7448C74.4663 95.3976 74.4566 105.837 68.5898 109.061C62.7229 112.285 53.2206 107.074 47.3659 97.4215C41.511 87.7686 41.5207 77.3297 47.3875 74.1052C53.2545 70.8809 62.7567 76.0922 68.6115 85.7448Z" fill="black"/>
<path fill-rule="evenodd" clip-rule="evenodd" d="M148.592 75.442C154.446 65.7892 154.437 55.3502 148.571 52.1258C142.703 48.9014 133.201 54.1126 127.347 63.7655C121.492 73.4183 121.501 83.8572 127.368 87.0817C133.235 90.3062 142.738 85.0949 148.592 75.442ZM148.593 96.1007C154.46 99.325 154.471 109.764 148.616 119.417C142.761 129.07 133.258 134.281 127.391 131.056C121.525 127.832 121.515 117.393 127.369 107.74C133.224 98.0875 142.727 92.8762 148.593 96.1007ZM108.621 118.068C114.488 121.292 114.497 131.731 108.643 141.384C102.788 151.036 93.2853 156.248 87.4185 153.023C81.5517 149.799 81.5418 139.36 87.3967 129.707C93.2516 120.054 102.754 114.843 108.621 118.068ZM108.598 74.0923C114.465 77.3168 114.475 87.7559 108.619 97.4085C102.765 107.061 93.2628 112.273 87.3959 109.048C81.529 105.824 81.5192 95.3848 87.3741 85.7322C93.2288 76.0793 102.731 70.868 108.598 74.0923Z" fill="black"/>
<path fill-rule="evenodd" clip-rule="evenodd" d="M99.1838 14.6766C99.1838 21.1253 89.6912 26.3531 77.9816 26.3531C66.272 26.3531 56.7795 21.1253 56.7795 14.6766C56.7795 8.22777 66.272 3 77.9816 3C89.6912 3 99.1838 8.22777 99.1838 14.6766ZM59.2113 36.6209C59.2113 43.0696 49.7188 48.2975 38.0092 48.2975C26.2995 48.2975 16.807 43.0696 16.807 36.6209C16.807 30.1721 26.2995 24.9443 38.0092 24.9443C49.7188 24.9443 59.2113 30.1721 59.2113 36.6209ZM118.006 48.2975C129.715 48.2975 139.208 43.0696 139.208 36.6209C139.208 30.1721 129.715 24.9443 118.006 24.9443C106.297 24.9443 96.8042 30.1721 96.8042 36.6209C96.8042 43.0696 106.297 48.2975 118.006 48.2975ZM99.1838 58.6145C99.1838 65.0632 89.6912 70.2908 77.9816 70.2908C66.272 70.2908 56.7795 65.0632 56.7795 58.6145C56.7795 52.1656 66.272 46.9379 77.9816 46.9379C89.6912 46.9379 99.1838 52.1656 99.1838 58.6145Z" fill="black"/>
<path d="M188.25 157.167H155.546C152.334 148.041 143.639 141.5 133.417 141.5C120.452 141.5 109.917 152.036 109.917 165C109.917 177.964 120.452 188.5 133.417 188.5C143.639 188.5 152.334 181.959 155.546 172.833H156.917L164.75 180.667L172.583 172.833L180.417 180.667L196.083 164.843L188.25 157.167ZM133.417 176.75C126.954 176.75 121.667 171.463 121.667 165C121.667 158.538 126.954 153.25 133.417 153.25C139.879 153.25 145.167 158.538 145.167 165C145.167 171.463 139.879 176.75 133.417 176.75Z" fill="black"/>
</g>
<defs>
<clipPath id="clip0_93_2">
<rect width="200" height="200" fill="white"/>
</clipPath>
</defs>
</svg>
