<svg width="200" height="200" viewBox="0 0 200 200" fill="none" xmlns="http://www.w3.org/2000/svg">
<g clip-path="url(#clip0_93_2)">
<g clip-path="url(#clip1_93_2)">
<path d="M31.5625 88.5C31.5625 77.8674 39.8674 69.5625 50.5 69.5625C60.9551 69.5625 69.4375 77.8674 69.4375 88.5C69.4375 98.9551 60.9551 107.438 50.5 107.438C39.8674 107.438 31.5625 98.9551 31.5625 88.5ZM50.5 79.0312C45.2725 79.0312 41.0313 83.2725 41.0313 88.5C41.0313 93.7275 45.2725 97.9688 50.5 97.9688C55.7275 97.9688 59.9687 93.7275 59.9687 88.5C59.9687 83.2725 55.7275 79.0312 50.5 79.0312ZM57.8186 38.0001C62.1979 38.0001 66.0051 40.9965 67.0309 45.2475L68.5695 51.6528C70.2463 52.4714 71.8441 53.4005 73.3631 54.4283L79.6953 52.5641C83.8971 51.3273 88.3947 53.1244 90.5844 56.9119L97.9029 69.5822C100.073 73.3697 99.3824 78.1633 96.2262 81.1814L91.4326 85.5607C91.4918 86.6457 91.5313 87.5729 91.5313 88.5C91.5313 89.4271 91.4918 90.3543 91.4326 91.2617L96.2262 95.8186C99.3824 98.8367 74.1699 100.212 72 104L69.615 105C67.4254 108.788 72.7713 113.375 68.5695 112.152L67.0309 118.563C65.5119 119.589 70.2463 124.521 68.5695 125.349L67.0309 131.76C66.0051 136.002 62.1979 139 57.8186 139H43.1814C38.8021 139 34.9949 136.002 33.9691 131.76L32.4305 125.349C30.7537 124.521 29.1559 123.594 27.6369 122.568L21.1271 124.442C17.1088 125.665 12.6132 123.87 10.4255 120.082L3.10693 107.418C0.919252 103.63 1.61126 98.8367 4.77974 95.8186L9.56146 91.2617C9.50031 90.3543 9.46875 89.4272 9.46875 88.3225C9.46875 87.5729 9.50031 86.6457 9.56146 85.5607L4.77974 81.1814C1.61106 78.1633 0.919252 73.3697 3.10693 69.5822L10.4255 56.9119C12.6132 53.1244 17.1088 51.3273 21.1271 52.5641L27.6369 54.4283C29.1559 53.4005 30.7537 52.4714 32.4305 51.6528L33.9691 45.2475C34.9949 40.9945 38.8021 38 43.1814 38L57.8186 38.0001ZM40.5381 58.4367L38.3287 59.3639C35.8234 60.4094 33.4957 61.7705 31.385 63.3881L29.4715 64.8479L18.6258 61.6521L11.3053 74.3166L19.4918 82.1086L19.19 84.4758C19.0243 85.7975 18.9375 87.1389 18.9375 88.5C18.9375 89.8611 19.0243 91.2025 19.19 92.5242L19.4918 94.8914L11.3073 102.683L18.6258 115.348L29.4715 112.152L31.385 113.612C33.4957 115.229 35.8234 116.591 38.3287 117.636L40.5381 118.563L43.1814 129.531L49 129L48.5 123.5L48.5 118.563C51.0053 117.518 47.8893 113.77 50 112.152L51.5 110L57 108.5L62.6713 105L68.5695 99.5L81.8061 92.5242C81.9836 91.2025 82.0625 89.8611 82.0625 88.5C82.0625 87.1389 81.9836 85.7975 81.8061 84.4758L81.5102 82.1086L89.6967 74.3166L82.3781 61.6521L71.5285 64.8479L69.615 63.3881C67.5043 61.7705 65.1766 60.4094 62.6713 59.3639L60.4619 58.4367L57.8186 47.4688H43.1814L40.5381 58.4367Z" fill="black" stroke="white" stroke-width="0.25"/>
</g>
<path d="M187.05 105.818L186.612 105.389H186H129.526C123.398 89.2815 107.815 77.8333 89.5556 77.8333C65.9249 77.8333 46.7223 97.036 46.7223 120.667C46.7223 144.297 65.9249 163.5 89.5556 163.5C107.815 163.5 123.398 152.052 129.526 135.944H130.268L143.606 149.283L144.667 150.344L145.727 149.283L158.444 136.566L171.162 149.283L172.228 150.349L173.288 149.278L200.844 121.446L201.905 120.375L200.828 119.32L187.05 105.818ZM89.5556 139.833C79.0174 139.833 70.3889 131.205 70.3889 120.667C70.3889 110.128 79.0174 101.5 89.5556 101.5C100.094 101.5 108.722 110.128 108.722 120.667C108.722 131.205 100.094 139.833 89.5556 139.833Z" fill="black" stroke="white" stroke-width="3"/>
<path fill-rule="evenodd" clip-rule="evenodd" d="M79.2925 121.743C80.505 121.062 80.507 118.859 79.297 116.821C78.087 114.784 76.1232 113.684 74.9107 114.364C73.6982 115.045 73.6962 117.248 74.9062 119.286C76.1162 121.323 78.08 122.423 79.2925 121.743ZM79.2997 126.106C80.5097 128.143 80.5077 130.346 79.2952 131.027C78.0827 131.708 76.1189 130.608 74.9089 128.57C73.6989 126.533 73.7009 124.329 74.9134 123.649C76.1259 122.968 78.0897 124.068 79.2997 126.106ZM87.5624 130.75C88.7724 132.787 88.7704 134.991 87.5579 135.671C86.3455 136.352 84.3816 135.252 83.1716 133.215C81.9616 131.177 81.9636 128.974 83.1761 128.293C84.3886 127.612 86.3524 128.712 87.5624 130.75ZM87.5597 121.466C88.7697 123.503 88.7677 125.707 87.5552 126.387C86.3427 127.068 84.3789 125.968 83.169 123.93C81.9589 121.893 81.961 119.689 83.1734 119.009C84.3859 118.328 86.3497 119.428 87.5597 121.466Z" fill="black"/>
<path fill-rule="evenodd" clip-rule="evenodd" d="M104.089 119.291C105.299 117.253 105.297 115.05 104.085 114.369C102.872 113.689 100.908 114.789 99.6984 116.826C98.4883 118.864 98.4903 121.067 99.7027 121.748C100.915 122.428 102.879 121.328 104.089 119.291ZM104.089 123.652C105.302 124.332 105.304 126.536 104.094 128.573C102.884 130.611 100.92 131.711 99.7075 131.03C98.4951 130.349 98.4931 128.146 99.7029 126.108C100.913 124.071 102.877 122.971 104.089 123.652ZM95.8282 128.288C97.0409 128.969 97.0427 131.172 95.8328 133.21C94.6228 135.247 92.659 136.347 91.4465 135.667C90.234 134.986 90.232 132.783 91.442 130.745C92.652 128.708 94.6158 127.608 95.8282 128.288ZM95.8237 119.006C97.0361 119.687 97.0381 121.89 95.828 123.928C94.6181 125.965 92.6543 127.065 91.4418 126.385C90.2293 125.704 90.2273 123.5 91.4373 121.463C92.6473 119.425 94.6111 118.325 95.8237 119.006Z" fill="black"/>
<path fill-rule="evenodd" clip-rule="evenodd" d="M93.878 106.465C93.878 107.826 91.9162 108.929 89.4962 108.929C87.0762 108.929 85.1144 107.826 85.1144 106.465C85.1144 105.103 87.0762 104 89.4962 104C91.9162 104 93.878 105.103 93.878 106.465ZM85.617 111.097C85.617 112.458 83.6552 113.561 81.2352 113.561C78.8152 113.561 76.8535 112.458 76.8535 111.097C76.8535 109.735 78.8152 108.632 81.2352 108.632C83.6552 108.632 85.617 109.735 85.617 111.097ZM97.7679 113.561C100.188 113.561 102.15 112.458 102.15 111.097C102.15 109.735 100.188 108.632 97.7679 108.632C95.348 108.632 93.3862 109.735 93.3862 111.097C93.3862 112.458 95.348 113.561 97.7679 113.561ZM93.878 115.739C93.878 117.1 91.9162 118.204 89.4962 118.204C87.0762 118.204 85.1144 117.1 85.1144 115.739C85.1144 114.378 87.0762 113.274 89.4962 113.274C91.9162 113.274 93.878 114.378 93.878 115.739Z" fill="black"/>
</g>
<defs>
<clipPath id="clip0_93_2">
<rect width="200" height="200" fill="white"/>
</clipPath>
<clipPath id="clip1_93_2">
<rect width="101" height="101" fill="white" transform="translate(0 38)"/>
</clipPath>
</defs>
</svg>
