<svg width="200" height="200" viewBox="0 0 200 200" fill="none" xmlns="http://www.w3.org/2000/svg">
<g clip-path="url(#clip0_93_2)">
<path fill-rule="evenodd" clip-rule="evenodd" d="M28.6652 94.0776C35.2322 90.4688 35.2431 78.7856 28.6894 67.982C22.1359 57.1787 11.4996 51.3462 4.93241 54.9549C-1.63462 58.5637 -1.6455 70.2471 4.90803 81.0505C11.4616 91.8541 22.0982 97.6864 28.6652 94.0776ZM28.7044 117.211C35.258 128.014 35.2471 139.697 28.68 143.306C22.1129 146.914 11.4766 141.083 4.9229 130.279C-1.63062 119.476 -1.61975 107.792 4.94742 104.183C11.5144 100.575 22.1508 106.407 28.7044 117.211ZM73.4568 141.836C80.0105 152.64 79.9996 164.322 73.4326 167.932C66.8656 171.541 56.229 165.708 49.6754 154.905C43.1219 144.101 43.1328 132.418 49.7 128.809C56.267 125.2 66.9033 131.033 73.4568 141.836ZM73.4422 92.6085C79.9959 103.412 79.985 115.095 73.418 118.704C66.8508 122.313 56.2145 116.48 49.661 105.677C43.1073 94.8734 43.1182 83.1902 49.6852 79.5814C56.2524 75.9727 66.8887 81.8052 73.4422 92.6085Z" fill="black"/>
<path fill-rule="evenodd" clip-rule="evenodd" d="M162.968 81.0775C169.521 70.274 169.512 58.5906 162.945 54.9819C156.377 51.3731 145.741 57.2055 139.188 68.0091C132.634 78.8125 132.645 90.4958 139.211 94.1047C145.779 97.7135 156.416 91.8811 162.968 81.0775ZM162.97 104.199C169.536 107.807 169.549 119.491 162.996 130.294C156.442 141.098 145.804 146.93 139.237 143.321C132.671 139.713 132.66 128.029 139.213 117.226C145.767 106.422 156.403 100.59 162.97 104.199ZM118.226 128.784C124.794 132.393 124.804 144.076 118.251 154.88C111.697 165.682 101.061 171.516 94.4939 167.907C87.9269 164.298 87.9159 152.615 94.4695 141.811C101.023 131.008 111.66 125.175 118.226 128.784ZM118.202 79.5669C124.768 83.1757 124.779 94.8592 118.225 105.663C111.672 116.466 101.036 122.299 94.4686 118.69C87.9015 115.081 87.8905 103.398 94.4442 92.5943C100.998 81.7907 111.634 75.9582 118.202 79.5669Z" fill="black"/>
<path fill-rule="evenodd" clip-rule="evenodd" d="M107.663 13.0685C107.663 20.286 97.0379 26.1369 83.9307 26.1369C70.8235 26.1369 60.1981 20.286 60.1981 13.0685C60.1981 5.85095 70.8235 0 83.9307 0C97.0379 0 107.663 5.85095 107.663 13.0685ZM62.9202 37.6287C62.9202 44.8461 52.2947 50.6972 39.1875 50.6972C26.0803 50.6972 15.4549 44.8461 15.4549 37.6287C15.4549 30.4112 26.0803 24.5602 39.1875 24.5602C52.2947 24.5602 62.9202 30.4112 62.9202 37.6287ZM128.732 50.6972C141.839 50.6972 152.464 44.8461 152.464 37.6287C152.464 30.4112 141.839 24.5602 128.732 24.5602C115.625 24.5602 105 30.4112 105 37.6287C105 44.8461 115.625 50.6972 128.732 50.6972ZM107.663 62.244C107.663 69.4615 97.0379 75.3123 83.9307 75.3123C70.8235 75.3123 60.1981 69.4615 60.1981 62.244C60.1981 55.0264 70.8235 49.1755 83.9307 49.1755C97.0379 49.1755 107.663 55.0264 107.663 62.244Z" fill="black"/>
<path d="M193 167.25H162.383C159.377 158.804 151.237 152.75 141.667 152.75C129.53 152.75 119.667 162.501 119.667 174.5C119.667 186.499 129.53 196.25 141.667 196.25C151.237 196.25 159.377 190.196 162.383 181.75H163.667L171 189L178.333 181.75L185.667 189L200.333 174.355L193 167.25ZM141.667 185.375C135.617 185.375 130.667 180.481 130.667 174.5C130.667 168.519 135.617 163.625 141.667 163.625C147.717 163.625 152.667 168.519 152.667 174.5C152.667 180.481 147.717 185.375 141.667 185.375Z" fill="black"/>
</g>
<defs>
<clipPath id="clip0_93_2">
<rect width="200" height="200" fill="white"/>
</clipPath>
</defs>
</svg>
